<mxfile host="app.diagrams.net" modified="2024-03-28T17:58:01.544Z" agent="Mozilla/5.0 (Windows NT 10.0; Win64; x64) AppleWebKit/537.36 (KHTML, like Gecko) Chrome/123.0.0.0 Safari/537.36" etag="prHz4OB2B4gwIgvPv0WO" version="24.1.0" type="github">
  <diagram name="第 1 页" id="kKs1ZtATyvtXfO2uSLDJ">
    <mxGraphModel dx="758" dy="408" grid="1" gridSize="10" guides="1" tooltips="1" connect="1" arrows="1" fold="1" page="1" pageScale="1" pageWidth="827" pageHeight="1169" math="0" shadow="0">
      <root>
        <mxCell id="0" />
        <mxCell id="1" parent="0" />
        <mxCell id="oNtGQxGrtgBJ91tNHVMV-7" style="edgeStyle=orthogonalEdgeStyle;rounded=0;orthogonalLoop=1;jettySize=auto;html=1;exitX=0.5;exitY=1;exitDx=0;exitDy=0;" edge="1" parent="1" source="oNtGQxGrtgBJ91tNHVMV-1" target="oNtGQxGrtgBJ91tNHVMV-2">
          <mxGeometry relative="1" as="geometry" />
        </mxCell>
        <mxCell id="oNtGQxGrtgBJ91tNHVMV-8" style="edgeStyle=orthogonalEdgeStyle;rounded=0;orthogonalLoop=1;jettySize=auto;html=1;exitX=0.5;exitY=1;exitDx=0;exitDy=0;entryX=0.5;entryY=0;entryDx=0;entryDy=0;" edge="1" parent="1" source="oNtGQxGrtgBJ91tNHVMV-1" target="oNtGQxGrtgBJ91tNHVMV-3">
          <mxGeometry relative="1" as="geometry" />
        </mxCell>
        <mxCell id="oNtGQxGrtgBJ91tNHVMV-9" style="edgeStyle=orthogonalEdgeStyle;rounded=0;orthogonalLoop=1;jettySize=auto;html=1;exitX=0.5;exitY=1;exitDx=0;exitDy=0;entryX=0.5;entryY=0;entryDx=0;entryDy=0;" edge="1" parent="1" source="oNtGQxGrtgBJ91tNHVMV-1" target="oNtGQxGrtgBJ91tNHVMV-4">
          <mxGeometry relative="1" as="geometry" />
        </mxCell>
        <mxCell id="oNtGQxGrtgBJ91tNHVMV-1" value="poller" style="rounded=0;whiteSpace=wrap;html=1;" vertex="1" parent="1">
          <mxGeometry x="130" y="260" width="120" height="60" as="geometry" />
        </mxCell>
        <mxCell id="oNtGQxGrtgBJ91tNHVMV-2" value="channel" style="rounded=0;whiteSpace=wrap;html=1;" vertex="1" parent="1">
          <mxGeometry x="30" y="360" width="120" height="60" as="geometry" />
        </mxCell>
        <mxCell id="oNtGQxGrtgBJ91tNHVMV-3" value="channel" style="rounded=0;whiteSpace=wrap;html=1;" vertex="1" parent="1">
          <mxGeometry x="170" y="360" width="120" height="60" as="geometry" />
        </mxCell>
        <mxCell id="oNtGQxGrtgBJ91tNHVMV-4" value="..." style="rounded=0;whiteSpace=wrap;html=1;" vertex="1" parent="1">
          <mxGeometry x="310" y="360" width="120" height="60" as="geometry" />
        </mxCell>
        <mxCell id="oNtGQxGrtgBJ91tNHVMV-6" style="edgeStyle=orthogonalEdgeStyle;rounded=0;orthogonalLoop=1;jettySize=auto;html=1;exitX=0.5;exitY=1;exitDx=0;exitDy=0;entryX=0.5;entryY=0;entryDx=0;entryDy=0;" edge="1" parent="1" source="oNtGQxGrtgBJ91tNHVMV-5" target="oNtGQxGrtgBJ91tNHVMV-1">
          <mxGeometry relative="1" as="geometry" />
        </mxCell>
        <mxCell id="oNtGQxGrtgBJ91tNHVMV-5" value="EventLoop" style="rounded=0;whiteSpace=wrap;html=1;" vertex="1" parent="1">
          <mxGeometry x="130" y="160" width="120" height="60" as="geometry" />
        </mxCell>
      </root>
    </mxGraphModel>
  </diagram>
</mxfile>
